<svg width="182" height="28" viewBox="0 0 182 28" fill="none" xmlns="http://www.w3.org/2000/svg">
<path d="M0 27.4207V0.193103H3.42921V27.4207H0Z" fill="#1A1A1A" style="fill:#1A1A1A;fill:color(display-p3 0.1020 0.1020 0.1020);fill-opacity:1;"/>
<path d="M13.9456 28C9.97697 28 7.01013 25.7986 7.01013 22.091C7.01013 18.3448 9.70726 16.6455 12.7897 16.1048L17.7216 15.1779C19.3399 14.869 20.3031 14.3669 20.3031 12.8993C20.3031 11.1228 18.839 9.92552 15.9877 9.92552C13.5218 9.92552 11.2485 11.0841 11.0944 13.5559H7.54956C7.78074 9.38483 11.4411 6.95172 15.9877 6.95172C21.4976 6.95172 23.6938 9.77103 23.6938 12.9766V22.9793C23.6938 24.2538 24.3488 24.64 25.1194 24.64C25.5047 24.64 25.89 24.6014 26.2753 24.4855V27.3434C25.7359 27.5752 24.8497 27.8069 23.8479 27.8069C22.1526 27.8069 20.7655 27.0345 20.3802 25.2579C19.494 26.3393 17.5289 28 13.9456 28ZM14.6006 24.9876C17.7987 24.9876 20.3031 23.1338 20.3031 20.3531V17.0703C19.9178 17.4952 18.7234 17.8428 17.2592 18.1131L14.0227 18.731C11.5953 19.1945 10.5164 20.1986 10.5164 21.9752C10.5164 24.0221 12.2503 24.9876 14.6006 24.9876Z" fill="#1A1A1A" style="fill:#1A1A1A;fill:color(display-p3 0.1020 0.1020 0.1020);fill-opacity:1;"/>
<path d="M32.312 27.4207L25.7618 7.53103H29.3451L32.5432 17.8814L34.2 23.3269L35.8953 17.8814L39.1704 7.53103H42.7537L46.0288 17.8814L47.7242 23.3269L49.381 17.8814L52.579 7.53103H56.1623L49.6121 27.4207H46.0288L42.7537 17.0703L40.9813 11.509L39.1704 17.0703L35.8953 27.4207H32.312Z" fill="#1A1A1A" style="fill:#1A1A1A;fill:color(display-p3 0.1020 0.1020 0.1020);fill-opacity:1;"/>
<path d="M63.99 28C60.0214 28 57.0545 25.7986 57.0545 22.091C57.0545 18.3448 59.7517 16.6455 62.8341 16.1048L67.766 15.1779C69.3843 14.869 70.3475 14.3669 70.3475 12.8993C70.3475 11.1228 68.8834 9.92552 66.0321 9.92552C63.5662 9.92552 61.2929 11.0841 61.1388 13.5559H57.594C57.8252 9.38483 61.4855 6.95172 66.0321 6.95172C71.542 6.95172 73.7382 9.77103 73.7382 12.9766V22.9793C73.7382 24.2538 74.3932 24.64 75.1638 24.64C75.5491 24.64 75.9345 24.6014 76.3198 24.4855V27.3434C75.7803 27.5752 74.8941 27.8069 73.8923 27.8069C72.197 27.8069 70.8099 27.0345 70.4246 25.2579C69.5384 26.3393 67.5733 28 63.99 28ZM64.645 24.9876C67.8431 24.9876 70.3475 23.1338 70.3475 20.3531V17.0703C69.9622 17.4952 68.7678 17.8428 67.3036 18.1131L64.0671 18.731C61.6397 19.1945 60.5608 20.1986 60.5608 21.9752C60.5608 24.0221 62.2947 24.9876 64.645 24.9876Z" fill="#1A1A1A" style="fill:#1A1A1A;fill:color(display-p3 0.1020 0.1020 0.1020);fill-opacity:1;"/>
<path d="M87.1116 28C81.5247 28 77.7872 23.6745 77.7872 17.4566C77.7872 11.2386 81.332 6.95172 87.2272 6.95172C89.539 6.95172 92.3517 8.07172 93.7003 10.3117V0.193103H97.091V27.4207H93.7388V24.5628C92.3517 26.8414 89.6931 28 87.1116 28ZM87.574 24.8331C91.2343 24.8331 93.8929 22.0524 93.8929 17.4566C93.8929 12.8993 91.1958 10.1186 87.574 10.1186C83.5668 10.1186 81.2935 12.8993 81.2935 17.4566C81.2935 22.0524 83.5668 24.8331 87.574 24.8331Z" fill="#1A1A1A" style="fill:#1A1A1A;fill:color(display-p3 0.1020 0.1020 0.1020);fill-opacity:1;"/>
<path d="M107.793 27.4207L99.6244 7.53103H103.477L107.407 17.8041L109.565 23.3655L111.684 17.8041L115.653 7.53103H119.506L111.299 27.4207H107.793Z" fill="#1A1A1A" style="fill:#1A1A1A;fill:color(display-p3 0.1020 0.1020 0.1020);fill-opacity:1;"/>
<path d="M122.063 27.4207V7.53103H125.492V27.4207H122.063ZM123.759 4.71173C122.449 4.71173 121.447 3.66897 121.447 2.35586C121.447 1.04276 122.487 0 123.759 0C125.107 0 126.109 1.04276 126.109 2.35586C126.109 3.66897 125.107 4.71173 123.759 4.71173Z" fill="#1A1A1A" style="fill:#1A1A1A;fill:color(display-p3 0.1020 0.1020 0.1020);fill-opacity:1;"/>
<path d="M137.82 28C132.811 28 129.343 25.1807 129.227 21.0097H132.695C132.926 23.4428 135.046 25.0262 138.012 25.0262C140.71 25.0262 142.443 23.7517 142.443 21.8593C142.443 20.2759 141.634 19.5034 139.631 19.1559L135.007 18.3834C131.539 17.8041 129.844 15.989 129.844 13.0152C129.844 9.38483 133.042 6.95172 137.704 6.95172C142.52 6.95172 145.641 9.50069 145.757 13.5172H142.289C142.097 11.2386 140.286 9.8869 137.55 9.8869C135.007 9.8869 133.35 11.0841 133.35 12.8607C133.35 14.3283 134.159 15.0234 136.24 15.371L140.825 16.1434C144.177 16.6841 145.911 18.6152 145.911 21.7048C145.911 25.4897 142.675 28 137.82 28Z" fill="#1A1A1A" style="fill:#1A1A1A;fill:color(display-p3 0.1020 0.1020 0.1020);fill-opacity:1;"/>
<path d="M158.847 28C152.759 28 148.752 23.7131 148.752 17.4566C148.752 11.2 152.759 6.95172 158.847 6.95172C164.973 6.95172 168.941 11.2386 168.941 17.4566C168.941 23.7517 164.973 28 158.847 28ZM158.847 24.8331C162.892 24.8331 165.474 22.0524 165.474 17.4566C165.474 12.8993 162.854 10.1186 158.847 10.1186C154.801 10.1186 152.258 12.8993 152.258 17.4566C152.258 22.0524 154.801 24.8331 158.847 24.8331Z" fill="#1A1A1A" style="fill:#1A1A1A;fill:color(display-p3 0.1020 0.1020 0.1020);fill-opacity:1;"/>
<path d="M172.522 27.4207V7.53103H175.874V10.6593C176.683 8.41931 178.763 7.14483 181.037 7.14483H182V10.5821H181.229C177.608 10.5821 175.951 12.9379 175.951 16.3752V27.4207H172.522Z" fill="#1A1A1A" style="fill:#1A1A1A;fill:color(display-p3 0.1020 0.1020 0.1020);fill-opacity:1;"/>
</svg>
