<svg width="80" height="80" viewBox="0 0 80 80" fill="none" xmlns="http://www.w3.org/2000/svg">
<style>path { fill: #ffffff; }</style>
<path d="M0 2C0 0.895428 0.894944 0 1.99891 0H12.2156C13.3195 0 14.2145 0.895431 14.2145 2V80H1.99891C0.894942 80 0 79.1046 0 78V2Z"/>
<path d="M12.396 44.3996H26.7881V77.9996C26.7881 79.1042 25.8932 79.9996 24.7892 79.9996H12.396V44.3996Z"/>
<path d="M24.8336 2C24.8336 0.895432 25.7285 0 26.8325 0H38.826C39.9299 0 40.8249 0.895431 40.8249 2V44.4H24.8336V2Z"/>
<path d="M33.4274 44.3996H46.2205V77.9996C46.2205 79.1042 45.3255 79.9996 44.2215 79.9996H35.4263C34.3224 79.9996 33.4274 79.1042 33.4274 77.9996V44.3996Z"/>
<path d="M46.4171 2C46.4171 0.895432 47.3121 0 48.416 0H54.8126C55.9165 0 56.8115 0.895431 56.8115 2V44.4H46.4171V2Z"/>
<path d="M51.9797 44.3996H63.9732V77.9996C63.9732 79.1042 63.0782 79.9996 61.9742 79.9996H53.9786C52.8746 79.9996 51.9797 79.1042 51.9797 77.9996V44.3996Z"/>
<path d="M62.4173 2C62.4173 0.895432 63.3122 0 64.4162 0H67.2147C68.3187 0 69.2136 0.895431 69.2136 2V44.4H62.4173V2Z"/>
<path d="M67.5632 44.3996H76.7582V77.9996C76.7582 79.1042 75.8632 79.9996 74.7593 79.9996H69.5621C68.4581 79.9996 67.5632 79.1042 67.5632 77.9996V44.3996Z"/>
<path d="M74.8028 2C74.8028 0.895432 75.6978 0 76.8017 0H78.0011C79.1051 0 80 0.895431 80 2V44.4H74.8028V2Z"/>
</svg>
